<svg xmlns="http://www.w3.org/2000/svg" xmlns:xlink="http://www.w3.org/1999/xlink" width="56.462" height="58.604" viewBox="0 0 56.462 58.604"><defs><filter id="a" x="6.798" y="0" width="43.46" height="43.46" filterUnits="userSpaceOnUse"><feOffset dy="3" input="SourceAlpha"/><feGaussianBlur stdDeviation="5" result="b"/><feFlood flood-opacity="0.161"/><feComposite operator="in" in2="b"/><feComposite in="SourceGraphic"/></filter><filter id="c" x="0" y="16.301" width="56.462" height="42.302" filterUnits="userSpaceOnUse"><feOffset dy="3" input="SourceAlpha"/><feGaussianBlur stdDeviation="5" result="d"/><feFlood flood-opacity="0.161"/><feComposite operator="in" in2="d"/><feComposite in="SourceGraphic"/></filter></defs><g transform="translate(15 12)"><g transform="matrix(1, 0, 0, 1, -15, -12)" filter="url(#a)"><circle cx="6.73" cy="6.73" r="6.73" transform="translate(21.8 12)" fill="#f2efff"/></g><g transform="matrix(1, 0, 0, 1, -15, -12)" filter="url(#c)"><path d="M25.94,12.3H.556c-.964-3.781-.675-6.591.88-8.593A8.561,8.561,0,0,1,5.659.977,24.923,24.923,0,0,1,13.248,0a23.975,23.975,0,0,1,7.53,1.007,8.7,8.7,0,0,1,4.206,2.766A7.187,7.187,0,0,1,26.42,7.6a14.1,14.1,0,0,1-.479,4.705Z" transform="translate(15 28.3)" fill="#f2efff"/></g></g></svg>